#!OML:ASF I:\golf\golf\golf 2\Subject 1\2002-09-07\Subject1.ASF
:FULLY-SPECIFIED
:DEGREES
36
root 1.01784 17.9383 -8.8548 8.31369 -7.35904 -6.5117
lowerback -8.61643 0.534897 -1.89128
upperback -0.338618 0.684596 4.53796
thorax 4.41 0.253455 5.91291
lowerneck -15.8927 0.695971 1.23198
upperneck 40.8272 3.18202 -6.08868
head 18.0394 0.589261 -2.46355
rclavicle -8.17502e-015 -2.38542e-015
rhumerus -29.5274 -2.49107 -83.3277
rradius 26.1106
rwrist -7.67002
rhand -19.9416 10.1966
rfingers 7.12502
rthumb 6.39621 -19.6868
lclavicle -8.17502e-015 -2.38542e-015
lhumerus -27.2826 0.0325821 90.367
lradius 22.137
lwrist -1.58758
lhand -8.31224 32.7686
lfingers 7.12502
lthumb 17.6084 61.9912
rfemur -15.418 1.46228 24.738
rtibia 29.4434
rfoot -15.279 -6.88494
rtoes 1.17347
lfemur -13.2562 4.01499 -14.7768
ltibia 31.3695
lfoot -19.5328 9.08273
ltoes -8.89267
37
root 1.01979 17.9386 -8.85608 8.31629 -7.34811 -6.44581
lowerback -8.62002 0.523441 -1.97259
upperback -0.328107 0.676673 4.54639
thorax 4.42298 0.247248 5.96816
lowerneck -15.9136 0.696661 1.18051
upperneck 40.8494 3.21614 -6.11672
head 18.0611 0.590622 -2.46215
rclavicle -1.61513e-015 -2.62396e-014
rhumerus -29.4882 -2.46149 -83.2817
rradius 26.0961
rwrist -7.65816
rhand -20.0215 10.1367
rfingers 7.12502
rthumb 6.3191 -19.7491
lclavicle -1.61513e-015 -2.62396e-014
lhumerus -27.3151 -0.244556 90.5185
lradius 22.2523
lwrist -1.16603
lhand -8.52222 32.8511
lfingers 7.12502
lthumb 17.4063 62.0918
rfemur -15.4328 1.45128 24.6573
rtibia 29.436
rfoot -15.2983 -6.82636
rtoes 2.23502
lfemur -13.2706 4.00093 -14.8586
ltibia 31.3683
lfoot -19.5494 9.03727
ltoes -8.65088
38
root 1.022 17.941 -8.85777 8.24451 -7.34824 -6.41549
lowerback -8.52076 0.515547 -2.01418
upperback -0.297926 0.669508 4.55197
thorax 4.39917 0.242795 5.99526
lowerneck -15.9329 0.684401 1.13275
upperneck 40.884 3.22523 -6.13713
head 18.0877 0.583197 -2.46336
rclavicle -3.97569e-016 -4.41302e-014
rhumerus -29.4339 -2.43616 -83.26
rradius 26.0696
rwrist -7.63028
rhand -20.0824 10.0959
rfingers 7.12502
rthumb 6.26023 -19.7916
lclavicle -3.97569e-016 -4.41302e-014
lhumerus -27.3182 -0.333027 90.5823
lradius 22.3142
lwrist -1.05535
lhand -8.47883 32.9748
lfingers 7.12502
lthumb 17.4481 62.2117
rfemur -15.3631 1.42327 24.6245
rtibia 29.4291
rfoot -15.3323 -6.93026
rtoes 1.78433
lfemur -13.2239 4.06404 -14.9056
ltibia 31.3741
lfoot -19.5126 9.04522
ltoes -9.1332
39
root 1.02432 17.9429 -8.86071 8.2001 -7.31646 -6.43984
lowerback -8.42351 0.488125 -2.0421
upperback -0.275096 0.633169 4.59637
thorax 4.37206 0.223859 6.0525
lowerneck -15.9772 0.69893 1.06968
upperneck 40.9114 3.2631 -6.11398
head 18.1171 0.590684 -2.43534
rclavicle 3.40419e-015 1.47101e-014
rhumerus -29.3605 -2.38379 -83.2196
rradius 26.0079
rwrist -7.57501
rhand -20.0988 10.0622
rfingers 7.12502
rthumb 6.24446 -19.8258
lclavicle 3.40419e-015 1.47101e-014
lhumerus -27.2254 -0.0182563 90.5567
lradius 22.1447
lwrist -1.13707
lhand -8.78718 32.7222
lfingers 7.12502
lthumb 17.1513 61.9852
rfemur -15.3138 1.41887 24.6482
rtibia 29.417
rfoot -15.4166 -6.98692
rtoes 1.16853
lfemur -13.2205 4.13172 -14.8838
ltibia 31.3903
lfoot -19.4443 9.06741
ltoes -9.81939
40
root 1.02682 17.9424 -8.86417 8.2327 -7.29033 -6.56544
lowerback -8.36997 0.482807 -1.93789
upperback -0.297119 0.614699 4.63984
thorax 4.32178 0.217906 6.03485
lowerneck -15.9362 0.72674 1.07158
upperneck 40.9021 3.29666 -6.09481
head 18.1021 0.607781 -2.41926
rclavicle 2.09469e-014 -3.73715e-014
rhumerus -29.3703 -2.31943 -83.2176
rradius 25.9826
rwrist -7.58021
rhand -20.0883 10.0441
rfingers 7.12502
rthumb 6.25457 -19.8435
lclavicle 2.09469e-014 -3.73715e-014
lhumerus -27.2348 0.197045 90.4963
lradius 22.1333
lwrist -1.37788
lhand -8.68464 32.5789
lfingers 7.12502
lthumb 17.25 61.8333
rfemur -15.3332 1.42234 24.7786
rtibia 29.3936
rfoot -15.4203 -6.95732
rtoes 0.624221
lfemur -13.2603 4.10428 -14.7365
ltibia 31.4205
lfoot -19.482 8.99866
ltoes -9.23561
41
root 1.02963 17.9418 -8.86522 8.27538 -7.31107 -6.6273
lowerback -8.33505 0.518641 -1.8392
upperback -0.352957 0.656428 4.60603
thorax 4.24013 0.243962 5.94449
lowerneck -15.8121 0.738104 1.17647
upperneck 40.8699 3.26915 -6.08589
head 18.0483 0.616773 -2.43677
rclavicle -3.23025e-016 -3.29983e-014
rhumerus -29.508 -2.30721 -83.2716
rradius 26.0268
rwrist -7.64888
rhand -20.0869 10.024
rfingers 7.12502
rthumb 6.25596 -19.8636
lclavicle -3.23025e-016 -3.29983e-014
lhumerus -27.3907 -0.0168194 90.4566
lradius 22.3926
lwrist -1.7158
lhand -7.84224 32.8407
lfingers 7.12502
lthumb 18.0606 62.0221
rfemur -15.3662 1.36155 24.8351
rtibia 29.3662
rfoot -15.3173 -6.87971
rtoes 0.819693
lfemur -13.3046 4.0458 -14.6787
ltibia 31.4586
lfoot -19.5476 8.98056
ltoes -8.57826
42
root 1.03162 17.9427 -8.86529 8.31552 -7.33483 -6.54989
lowerback -8.29608 0.563498 -1.87356
upperback -0.423463 0.725956 4.51637
thorax 4.13695 0.282539 5.87389
lowerneck -15.7428 0.724825 1.29644
upperneck 40.9011 3.19526 -6.05966
head 18.0433 0.610828 -2.46136
rclavicle 1.11195e-014 -6.75868e-015
rhumerus -29.6791 -2.38375 -83.3209
rradius 26.0935
rwrist -7.67953
rhand -20.0411 9.95266
rfingers 7.12502
rthumb 6.30014 -19.9336
lclavicle 1.11195e-014 -6.75868e-015
lhumerus -27.4901 -0.414082 90.4907
lradius 22.4386
lwrist -1.46132
lhand -7.99621 32.9442
lfingers 7.12502
lthumb 17.9125 62.1393
rfemur -15.4128 1.3408 24.7286
rtibia 29.3509
rfoot -15.2529 -6.74079
rtoes 2.53247
lfemur -13.3933 4.19286 -14.7898
ltibia 31.4851
lfoot -19.5093 8.95987
ltoes -9.21408
43
root 1.03303 17.9445 -8.86711 8.3477 -7.30289 -6.55077
lowerback -8.21982 0.591747 -1.84027
upperback -0.477824 0.764726 4.46534
thorax 4.03389 0.306323 5.80141
lowerneck -15.7683 0.697567 1.30917
upperneck 41.0061 3.11367 -5.96373
head 18.1034 0.592629 -2.4393
rclavicle -3.10601e-016 -3.49861e-014
rhumerus -29.8081 -2.44328 -83.3636
rradius 26.1691
rwrist -7.69245
rhand -20.0072 9.87786
rfingers 7.12502
rthumb 6.33288 -20.0075
lclavicle -3.10601e-016 -3.49861e-014
lhumerus -27.5113 -0.581147 90.4942
lradius 22.3437
lwrist -1.20037
lhand -8.53259 32.7995
lfingers 7.12502
lthumb 17.3963 62.041
rfemur -15.4431 1.34193 24.7219
rtibia 29.3375
rfoot -15.1901 -6.67931
rtoes 3.4588
lfemur -13.4698 4.3928 -14.793
ltibia 31.5015
lfoot -19.3637 8.95963
ltoes -10.7549
44
root 1.03515 17.943 -8.86875 8.28449 -7.24406 -6.56062
lowerback -8.10116 0.587563 -1.80202
upperback -0.475542 0.757423 4.43561
thorax 3.97137 0.305049 5.74379
lowerneck -15.788 0.679604 1.26497
upperneck 41.066 3.05336 -5.84374
head 18.1354 0.577353 -2.38902
rclavicle -1.33558e-014 -7.95139e-015
rhumerus -29.8497 -2.47387 -83.4043
rradius 26.164
rwrist -7.63464
rhand -19.9765 9.96616
rfingers 7.12502
rthumb 6.36255 -19.9183
lclavicle -1.33558e-014 -7.95139e-015
lhumerus -27.497 -0.438763 90.3944
lradius 22.3575
lwrist -1.65861
lhand -8.11396 32.8136
lfingers 7.12502
lthumb 17.7992 62.019
rfemur -15.3684 1.23719 24.7456
rtibia 29.3156
rfoot -15.1047 -6.71311
rtoes 2.58213
lfemur -13.409 4.38513 -14.7628
ltibia 31.519
lfoot -19.3219 8.93371
ltoes -11.1461
45
root 1.03879 17.9416 -8.86977 8.23875 -7.19414 -6.52535
lowerback -8.04334 0.573877 -1.79271
upperback -0.464042 0.740096 4.39333
thorax 3.95348 0.297188 5.69022
lowerneck -15.7154 0.668616 1.25987
upperneck 41.0286 3.00566 -5.77657
head 18.0876 0.567695 -2.36298
rclavicle 8.36138e-015 -1.98785e-014
rhumerus -29.8238 -2.47754 -83.4412
rradius 26.1019
rwrist -7.61113
rhand -19.9045 10.0594
rfingers 7.12502
rthumb 6.432 -19.8229
lclavicle 8.36138e-015 -1.98785e-014
lhumerus -27.4878 -0.461589 90.3646
lradius 22.3552
lwrist -1.66152
lhand -8.13378 32.7664
lfingers 7.12502
lthumb 17.7801 61.9736
rfemur -15.3177 1.17486 24.7025
rtibia 29.2961
rfoot -15.0704 -6.71101
rtoes 2.25618
lfemur -13.3729 4.2913 -14.7902
ltibia 31.5362
lfoot -19.5206 8.68593
ltoes -9.34273
46
root 1.04279 17.9443 -8.87259 8.29773 -7.10798 -6.56011
lowerback -8.02048 0.586002 -1.68726
upperback -0.494462 0.749925 4.33974
thorax 3.90976 0.305922 5.57246
lowerneck -15.6235 0.663814 1.37729
upperneck 40.9771 2.96116 -5.79653
head 18.0311 0.567419 -2.39905
rclavicle 1.68843e-014 3.97569e-015
rhumerus -29.8262 -2.57613 -83.4757
rradius 26.0928
rwrist -7.61011
rhand -19.8475 10.0172
rfingers 7.12502
rthumb 6.48707 -19.8634
lclavicle 1.68843e-014 3.97569e-015
lhumerus -27.5293 -0.831738 90.3996
lradius 22.3817
lwrist -1.16585
lhand -8.56911 32.6256
lfingers 7.12502
lthumb 17.3612 61.8702
rfemur -15.3801 1.18894 24.7273
rtibia 29.289
rfoot -15.0658 -6.7192
rtoes 2.77179
lfemur -13.4713 4.18577 -14.7525
ltibia 31.5435
lfoot -19.6321 8.50803
ltoes -8.00717
47
root 1.04581 17.9461 -8.8763 8.3189 -6.98058 -6.6063
lowerback -7.95145 0.58813 -1.61556
upperback -0.513545 0.74826 4.31648
thorax 3.85249 0.308101 5.50422
lowerneck -15.5785 0.658748 1.51099
upperneck 40.9767 2.94545 -5.88904
head 18.0223 0.570517 -2.46975
rclavicle -2.37299e-015 2.80286e-014
rhumerus -29.8589 -2.69861 -83.4684
rradius 26.1175
rwrist -7.5622
rhand -19.801 10.0191
rfingers 7.12502
rthumb 6.53191 -19.8602
lclavicle -2.37299e-015 2.80286e-014
lhumerus -27.5219 -0.969601 90.3723
lradius 22.4783
lwrist -1.38626
lhand -8.06076 32.9555
lfingers 7.12502
lthumb 17.8504 62.1563
rfemur -15.3982 1.17024 24.7781
rtibia 29.2789
rfoot -15.0795 -6.75419
rtoes 3.51578
lfemur -13.5392 4.13229 -14.7003
ltibia 31.5484
lfoot -19.5688 8.50043
ltoes -8.29212
